<?xml version='1.0' encoding='utf-8'?>
<svg xmlns="http://www.w3.org/2000/svg" width="40px" height="40px" viewBox="0 0 40 40" version="1.1">
    <defs><filter id="pencil" x="-5%" y="-5%" width="110%" height="110%"><feTurbulence type="fractalNoise" baseFrequency="0.175" numOctaves="1" seed="12" result="grain" /><feDisplacementMap in="SourceGraphic" in2="grain" scale="0.4" xChannelSelector="R" yChannelSelector="G" /></filter></defs><g filter="url(#pencil)"><g id="Icon-Architecture-Group/32/Region_32" stroke="none" stroke-width="1" fill="none" fill-rule="evenodd">
        <path d="M3.2 1.7999999999999998Q20.0 1.0 36.800000000000004 2.2Q38.6 2.4 38.199999999999996 4.8L38.0 36.0Q38.4 38.199999999999996 36.0 38.199999999999996L3.5999999999999996 37.8Q1.4000000000000001 38.0 1.7999999999999998 35.6L2.0 4.4Q1.7999999999999998 2.0 3.2 1.7999999999999998Z" fill="#bfe8e9" stroke="#3b4048" stroke-width="0.72" stroke-linejoin="round" stroke-linecap="round" />
        <path d="M14,20.026 L14,11.026 L29.293,11.026 L25.146,15.172 C24.951,15.368 24.951,15.684 25.146,15.88 L29.293,20.026 L14,20.026 Z M26.207,15.526 L30.854,10.88 C30.996,10.736 31.039,10.522 30.962,10.335 C30.885,10.148 30.702,10.026 30.5,10.026 L14,10.026 L14,8.97 C14.596,8.76 15.026,8.198 15.026,7.531 C15.026,6.687 14.34,6 13.495,6 C12.65,6 11.963,6.687 11.963,7.531 C11.963,8.201 12.398,8.766 13,8.973 L13,33.026 L10,33.026 L10,34.026 L17,34.026 L17,33.026 L14,33.026 L14,21.026 L30.5,21.026 C30.702,21.026 30.885,20.904 30.962,20.717 C31.039,20.53 30.996,20.316 30.854,20.172 L26.207,15.526 Z" id="Fill-1" fill="#3b4048" stroke="#3b4048" stroke-width="0.08" stroke-linejoin="round" stroke-linecap="round" />
    </g>
</g></svg>