<?xml version='1.0' encoding='utf-8'?>
<svg xmlns="http://www.w3.org/2000/svg" version="1.1" viewBox="0 0 512 512">
  
  <defs><filter id="pencil" x="-5%" y="-5%" width="110%" height="110%"><feTurbulence type="fractalNoise" baseFrequency="0.0136719" numOctaves="1" seed="12" result="grain" /><feDisplacementMap in="SourceGraphic" in2="grain" scale="5.12" xChannelSelector="R" yChannelSelector="G" /></filter></defs><g filter="url(#pencil)"><defs>
    </defs>
  <g id="bounding_box">
    <rect width="512" height="512" fill="none" />
  </g>
  <g id="art">
    <path d="M380.7,396.7h-249.3c-8.8,0-16-7.2-16-16v-249.3c0-8.8,7.2-16,16-16h249.3c8.8,0,16,7.2,16,16v249.3c0,8.8-7.2,16-16,16ZM147.3,364.7h217.3v-217.3h-217.3v217.3Z" fill="#d0e0fc" stroke="#3b4048" stroke-width="6.656" stroke-linejoin="round" stroke-linecap="round" />
    <path d="M147.3,364.7h-32v-233.3c0-8.8,7.2-16,16-16h146.1v32h-130.1v217.3h0Z" fill="#feeec0" stroke="#3b4048" stroke-width="6.656" stroke-linejoin="round" stroke-linecap="round" />
    <path d="M443,364.7h-62.3c-8.8,0-16-7.2-16-16s7.2-16,16-16h62.3c8.8,0,16,7.2,16,16s-7.2,16-16,16Z" fill="#d0e0fc" stroke="#3b4048" stroke-width="6.656" stroke-linejoin="round" stroke-linecap="round" />
    <path d="M443,272h-62.3c-8.8,0-16-7.2-16-16s7.2-16,16-16h62.3c8.8,0,16,7.2,16,16s-7.2,16-16,16Z" fill="#fad0cc" stroke="#3b4048" stroke-width="6.656" stroke-linejoin="round" stroke-linecap="round" />
    <path d="M443,178.5h-62.3c-8.8,0-16-7.2-16-16s7.2-16,16-16h62.3c8.8,0,16,7.2,16,16s-7.2,16-16,16Z" fill="#fad0cc" stroke="#3b4048" stroke-width="6.656" stroke-linejoin="round" stroke-linecap="round" />
    <path d="M349.5,147.3c-8.8,0-16-7.2-16-16v-62.3c0-8.8,7.2-16,16-16s16,7.2,16,16v62.3c0,8.8-7.2,16-16,16Z" fill="#fad0cc" stroke="#3b4048" stroke-width="6.656" stroke-linejoin="round" stroke-linecap="round" />
    <path d="M256,147.3c-8.8,0-16-7.2-16-16v-62.3c0-8.8,7.2-16,16-16s16,7.2,16,16v62.3c0,8.8-7.2,16-16,16Z" fill="#fad0cc" stroke="#3b4048" stroke-width="6.656" stroke-linejoin="round" stroke-linecap="round" />
    <path d="M162.5,147.3c-8.8,0-16-7.2-16-16v-62.3c0-8.8,7.2-16,16-16s16,7.2,16,16v62.3c0,8.8-7.2,16-16,16Z" fill="#feeec0" stroke="#3b4048" stroke-width="6.656" stroke-linejoin="round" stroke-linecap="round" />
    <path d="M315,331h-118c-8.8,0-16-7.2-16-16v-118c0-8.8,7.2-16,16-16h118c8.8,0,16,7.2,16,16v118c0,8.8-7.2,16-16,16ZM213,299h86v-86h-86v86Z" fill="#cce9d4" stroke="#3b4048" stroke-width="6.656" stroke-linejoin="round" stroke-linecap="round" />
    <path d="M396.7,332.7h-32v-185.3h-124.6v-32h140.6c8.8,0,16,7.2,16,16v201.3Z" fill="#fad0cc" stroke="#3b4048" stroke-width="6.656" stroke-linejoin="round" stroke-linecap="round" />
    <path d="M162.5,459c-8.8,0-16-7.2-16-16v-62.3c0-8.8,7.2-16,16-16s16,7.2,16,16v62.3c0,8.8-7.2,16-16,16Z" fill="#d0e0fc" stroke="#3b4048" stroke-width="6.656" stroke-linejoin="round" stroke-linecap="round" />
    <path d="M256,459c-8.8,0-16-7.2-16-16v-62.3c0-8.8,7.2-16,16-16s16,7.2,16,16v62.3c0,8.8-7.2,16-16,16Z" fill="#d0e0fc" stroke="#3b4048" stroke-width="6.656" stroke-linejoin="round" stroke-linecap="round" />
    <path d="M349.5,459c-8.8,0-16-7.2-16-16v-62.3c0-8.8,7.2-16,16-16s16,7.2,16,16v62.3c0,8.8-7.2,16-16,16Z" fill="#d0e0fc" stroke="#3b4048" stroke-width="6.656" stroke-linejoin="round" stroke-linecap="round" />
    <path d="M131.3,178.5h-62.3c-8.8,0-16-7.2-16-16s7.2-16,16-16h62.3c8.8,0,16,7.2,16,16s-7.2,16-16,16Z" fill="#feeec0" stroke="#3b4048" stroke-width="6.656" stroke-linejoin="round" stroke-linecap="round" />
    <path d="M131.3,272h-62.3c-8.8,0-16-7.2-16-16s7.2-16,16-16h62.3c8.8,0,16,7.2,16,16s-7.2,16-16,16Z" fill="#feeec0" stroke="#3b4048" stroke-width="6.656" stroke-linejoin="round" stroke-linecap="round" />
    <path d="M131.3,364.7h-62.3c-8.8,0-16-7.2-16-16s7.2-16,16-16h62.3c8.8,0,16,7.2,16,16s-7.2,16-16,16Z" fill="#feeec0" stroke="#3b4048" stroke-width="6.656" stroke-linejoin="round" stroke-linecap="round" />
  </g>
</g></svg>